<svg width="154" height="38" viewBox="0 0 154 38" fill="none" xmlns="http://www.w3.org/2000/svg">
<path d="M152.093 11.6032C150.177 7.05823 146.564 3.43679 142.021 1.50558C139.7 0.504019 137.197 -0.00838519 134.669 0.000216836C132.14 -0.0121003 129.637 0.500458 127.317 1.50558C122.763 3.42795 119.142 7.0515 117.226 11.6032C116.239 13.9261 115.731 16.4236 115.731 18.9469C115.731 21.4703 116.239 23.9678 117.226 26.2906C119.158 30.823 122.776 34.4297 127.317 36.3515C129.634 37.3655 132.139 37.8787 134.669 37.8571C137.198 37.8726 139.702 37.3597 142.021 36.3515L142.867 35.9476C131.838 35.2867 126.949 29.3017 125.295 26.4377C124.634 25.5765 124.079 24.6396 123.641 23.647C122.392 20.6188 122.392 17.2201 123.641 14.1919C124.246 12.7225 125.118 11.3779 126.214 10.2262C127.29 9.08625 128.575 8.16379 130 7.50911C131.454 6.82349 133.043 6.47228 134.651 6.4811C136.264 6.47449 137.858 6.82553 139.319 7.50911C140.739 8.17297 142.023 9.09427 143.106 10.2262C144.19 11.3832 145.055 12.7268 145.66 14.1919C146.291 15.6885 146.615 17.2957 146.615 18.9193C146.615 20.543 146.291 22.1504 145.66 23.647C145.046 25.1074 144.182 26.4494 143.106 27.6127C142.023 28.7503 140.74 29.6777 139.319 30.3482C137.968 30.9711 136.505 31.3145 135.018 31.3578C138.821 32.9423 142.954 33.5727 147.057 33.1938C147.388 32.9184 147.719 32.6246 148.031 32.3125C149.755 30.5878 151.134 28.5502 152.093 26.309C153.08 23.9862 153.589 21.4886 153.589 18.9653C153.589 16.442 153.08 13.9444 152.093 11.6216V11.6032Z" fill="#181818"/>
<path d="M103.151 37.272H97.1815V13.0064H102.374L102.593 17.4227C103.434 15.8697 104.566 14.6645 105.99 13.8072C107.43 12.9498 109.08 12.5211 110.94 12.5211C111.425 12.5211 111.919 12.5534 112.42 12.6181C112.938 12.6828 113.448 12.7799 113.949 12.9093L113.221 18.2963C112.218 18.0051 111.248 17.8595 110.309 17.8595C108.886 17.8595 107.632 18.1911 106.548 18.8544C105.48 19.5177 104.647 20.4398 104.049 21.6207C103.45 22.7854 103.151 24.1443 103.151 25.6973V37.272Z" fill="#181818"/>
<path fill-rule="evenodd" clip-rule="evenodd" d="M86.0194 37.272H91.2122V23.5619C91.2122 21.3133 90.7512 19.364 89.8291 17.7139C88.9231 16.0477 87.6371 14.7697 85.9708 13.8799C84.3046 12.974 82.331 12.5211 80.05 12.5211C78.497 12.5211 76.9036 12.7395 75.2697 13.1762C73.652 13.613 72.0666 14.2601 70.5136 15.1175L72.2122 19.8008C73.1828 19.0566 74.2262 18.4985 75.3425 18.1264C76.4587 17.7382 77.5749 17.5441 78.6911 17.5441C79.9206 17.5441 81.0287 17.7625 82.0155 18.1992C83.0023 18.6198 83.7869 19.2184 84.3693 19.9949C84.9517 20.7714 85.2429 21.6935 85.2429 22.7612V23.5377C84.2722 23.0685 83.2126 22.7046 82.0641 22.4457C80.9317 22.1869 79.7993 22.0575 78.6669 22.0575C76.8065 22.0575 75.1483 22.3972 73.6924 23.0766C72.2526 23.7561 71.1122 24.6943 70.2709 25.8914C69.4459 27.0724 69.0334 28.4474 69.0334 30.0166C69.0334 31.5049 69.4136 32.8314 70.1739 33.9962C70.9504 35.1609 72.01 36.083 73.3527 36.7625C74.6954 37.4257 76.2241 37.7573 77.9389 37.7573C79.5566 37.7573 81.0287 37.4581 82.3552 36.8595C83.6818 36.2448 84.7899 35.3874 85.6796 34.2874L86.0194 37.272ZM82.0883 32.2976C81.1986 32.7344 80.228 32.9527 79.1764 32.9527C78.3191 32.9527 77.5426 32.7991 76.8469 32.4917C76.1675 32.1843 75.6337 31.7637 75.2454 31.2299C74.8572 30.6799 74.663 30.0732 74.663 29.41C74.663 28.3261 75.1403 27.4525 76.0947 26.7893C77.0492 26.1098 78.2705 25.7701 79.7588 25.7701C80.7294 25.7701 81.692 25.9238 82.6464 26.2312C83.6009 26.5223 84.4583 26.943 85.2186 27.493V27.7599C85.1862 28.7791 84.8789 29.685 84.2965 30.4776C83.7303 31.2542 82.9942 31.8608 82.0883 32.2976Z" fill="#181818"/>
<path fill-rule="evenodd" clip-rule="evenodd" d="M67.3873 23.9727C66.8039 27.6675 65.2425 30.7846 62.703 33.324C60.8614 35.1657 58.8081 36.4183 56.5432 37.0817C54.2783 37.7452 52.0248 37.8138 49.7828 37.2876C47.5522 36.75 45.5618 35.6061 43.8116 33.856C42.153 32.1973 41.0548 30.3328 40.5172 28.2623C39.991 26.1804 40.0196 24.0928 40.603 21.9995C41.1978 19.8947 42.3417 17.9959 44.0347 16.3029C45.7963 14.5413 47.7581 13.4146 49.92 12.9227C52.082 12.408 54.2725 12.5166 56.4917 13.2487C58.6994 13.9694 60.7756 15.302 62.7202 17.2466L63.2693 17.7957L50.0573 31.0077C51.041 31.5796 52.0877 31.9056 53.1973 31.9857C54.3183 32.0543 55.4336 31.8656 56.5432 31.4195C57.6527 30.9733 58.6937 30.2641 59.666 29.2918C61.4962 27.4616 62.5944 25.1738 62.9604 22.4285L67.3873 23.9727ZM47.4149 28.7084L56.8863 19.237C55.9369 18.4706 54.9246 17.9844 53.8493 17.7785C52.7855 17.5612 51.7331 17.6184 50.6921 17.9501C49.6512 18.259 48.7075 18.8366 47.861 19.6831C47.0031 20.541 46.4197 21.4905 46.1109 22.5314C45.802 23.5724 45.762 24.6305 45.9907 25.7057C46.2081 26.7695 46.6828 27.7704 47.4149 28.7084Z" fill="#181818"/>
<path d="M24.4089 6.69732C26.0104 7.31205 27.3855 8.1937 28.534 9.34227L32.7077 5.21711C30.8797 3.58323 28.801 2.3295 26.4715 1.45594C24.1581 0.582375 21.7316 0.145594 19.1918 0.145594C16.5225 0.145594 14.0394 0.622818 11.7422 1.57727C9.46124 2.51554 7.47146 3.84206 5.77286 5.55683C4.09045 7.2716 2.77201 9.28565 1.81756 11.599C0.879292 13.8961 0.410156 16.3874 0.410156 19.0728C0.410156 21.7744 0.879292 24.2737 1.81756 26.5709C2.77201 28.868 4.09853 30.874 5.79713 32.5888C7.5119 34.2874 9.50977 35.6139 11.7907 36.5683C14.0879 37.5228 16.5792 38 19.2646 38C21.8691 38 24.2471 37.547 26.3987 36.6411C28.5502 35.7352 30.4106 34.4491 31.9798 32.7829C33.5489 31.1005 34.7541 29.1188 35.5953 26.8378C36.4527 24.5407 36.8814 22.0089 36.8814 19.2427L36.7116 16.8161H19.5558V21.7663H31.0577C30.8474 23.3678 30.4187 24.8238 29.7716 26.1341C29.1245 27.4444 28.2914 28.5688 27.2722 29.507C26.2692 30.4291 25.1045 31.1409 23.778 31.6424C22.4515 32.1277 20.9955 32.3704 19.4102 32.3704C17.5821 32.3704 15.9078 32.0468 14.3872 31.3997C12.8665 30.7527 11.5481 29.8306 10.4319 28.6335C9.33183 27.4364 8.47444 26.0209 7.85971 24.387C7.26116 22.7369 6.96188 20.9251 6.96188 18.9515C6.96188 16.994 7.26116 15.2146 7.85971 13.613C8.45826 11.9953 9.30756 10.6041 10.4076 9.43934C11.5076 8.25841 12.8099 7.35249 14.3144 6.72158C15.835 6.09068 17.5093 5.77522 19.3374 5.77522C21.133 5.77522 22.8235 6.08259 24.4089 6.69732Z" fill="#181818"/>
</svg>
