<svg width="154" height="38" viewBox="0 0 154 38" fill="none" xmlns="http://www.w3.org/2000/svg">
<path d="M152.094 11.6032C150.178 7.05823 146.565 3.43679 142.022 1.50558C139.701 0.504019 137.198 -0.00838519 134.67 0.000216836C132.141 -0.0121003 129.638 0.500458 127.318 1.50558C122.764 3.42795 119.143 7.0515 117.227 11.6032C116.24 13.9261 115.732 16.4236 115.732 18.9469C115.732 21.4703 116.24 23.9678 117.227 26.2906C119.159 30.823 122.777 34.4297 127.318 36.3515C129.635 37.3655 132.14 37.8787 134.67 37.8571C137.199 37.8726 139.703 37.3597 142.022 36.3515L142.868 35.9476C131.839 35.2867 126.95 29.3017 125.296 26.4377C124.635 25.5765 124.08 24.6396 123.642 23.647C122.393 20.6188 122.393 17.2201 123.642 14.1919C124.247 12.7225 125.119 11.3779 126.215 10.2262C127.291 9.08625 128.576 8.16379 130.001 7.50911C131.455 6.82349 133.044 6.47228 134.652 6.4811C136.265 6.47449 137.859 6.82553 139.32 7.50911C140.74 8.17297 142.024 9.09427 143.106 10.2262C144.191 11.3832 145.056 12.7268 145.661 14.1919C146.292 15.6885 146.616 17.2957 146.616 18.9193C146.616 20.543 146.292 22.1504 145.661 23.647C145.047 25.1074 144.183 26.4494 143.106 27.6127C142.024 28.7503 140.74 29.6777 139.32 30.3482C137.969 30.9711 136.506 31.3145 135.019 31.3578C138.822 32.9423 142.955 33.5727 147.058 33.1938C147.389 32.9184 147.72 32.6246 148.032 32.3125C149.756 30.5878 151.135 28.5502 152.094 26.309C153.081 23.9862 153.59 21.4886 153.59 18.9653C153.59 16.442 153.081 13.9444 152.094 11.6216V11.6032Z" fill="white"/>
<path d="M103.152 37.272H97.1825V13.0064H102.375L102.594 17.4227C103.435 15.8697 104.567 14.6645 105.991 13.8072C107.431 12.9498 109.081 12.5211 110.941 12.5211C111.426 12.5211 111.92 12.5534 112.421 12.6181C112.939 12.6828 113.449 12.7799 113.95 12.9093L113.222 18.2963C112.219 18.0051 111.249 17.8595 110.31 17.8595C108.887 17.8595 107.633 18.1911 106.549 18.8544C105.481 19.5177 104.648 20.4398 104.05 21.6207C103.451 22.7854 103.152 24.1443 103.152 25.6973V37.272Z" fill="white"/>
<path fill-rule="evenodd" clip-rule="evenodd" d="M86.0203 37.272H91.2132V23.5619C91.2132 21.3133 90.7521 19.364 89.83 17.7139C88.9241 16.0477 87.638 14.7697 85.9718 13.8799C84.3056 12.974 82.3319 12.5211 80.051 12.5211C78.498 12.5211 76.9045 12.7395 75.2706 13.1762C73.6529 13.613 72.0676 14.2601 70.5146 15.1175L72.2132 19.8008C73.1838 19.0566 74.2272 18.4985 75.3434 18.1264C76.4597 17.7382 77.5759 17.5441 78.6921 17.5441C79.9216 17.5441 81.0297 17.7625 82.0165 18.1992C83.0033 18.6198 83.7879 19.2184 84.3703 19.9949C84.9526 20.7714 85.2438 21.6935 85.2438 22.7612V23.5377C84.2732 23.0685 83.2136 22.7046 82.065 22.4457C80.9326 22.1869 79.8002 22.0575 78.6678 22.0575C76.8075 22.0575 75.1493 22.3972 73.6934 23.0766C72.2536 23.7561 71.1131 24.6943 70.2719 25.8914C69.4469 27.0724 69.0344 28.4474 69.0344 30.0166C69.0344 31.5049 69.4145 32.8314 70.1749 33.9962C70.9514 35.1609 72.011 36.083 73.3537 36.7625C74.6964 37.4257 76.2251 37.7573 77.9399 37.7573C79.5576 37.7573 81.0297 37.4581 82.3562 36.8595C83.6827 36.2448 84.7909 35.3874 85.6806 34.2874L86.0203 37.272ZM82.0893 32.2976C81.1996 32.7344 80.2289 32.9527 79.1774 32.9527C78.32 32.9527 77.5435 32.7991 76.8479 32.4917C76.1685 32.1843 75.6346 31.7637 75.2464 31.2299C74.8581 30.6799 74.664 30.0732 74.664 29.41C74.664 28.3261 75.1412 27.4525 76.0957 26.7893C77.0501 26.1098 78.2715 25.7701 79.7598 25.7701C80.7304 25.7701 81.693 25.9238 82.6474 26.2312C83.6019 26.5223 84.4592 26.943 85.2196 27.493V27.7599C85.1872 28.7791 84.8798 29.685 84.2975 30.4776C83.7313 31.2542 82.9952 31.8608 82.0893 32.2976Z" fill="white"/>
<path fill-rule="evenodd" clip-rule="evenodd" d="M67.3882 23.9727C66.8049 27.6675 65.2435 30.7846 62.704 33.324C60.8623 35.1657 58.809 36.4183 56.5441 37.0817C54.2792 37.7452 52.0258 37.8138 49.7837 37.2876C47.5531 36.75 45.5628 35.6061 43.8126 33.856C42.154 32.1973 41.0558 30.3328 40.5182 28.2623C39.992 26.1804 40.0206 24.0928 40.604 21.9995C41.1988 19.8947 42.3427 17.9959 44.0357 16.3029C45.7973 14.5413 47.759 13.4146 49.921 12.9227C52.083 12.408 54.2735 12.5166 56.4927 13.2487C58.7004 13.9694 60.7765 15.302 62.7212 17.2466L63.2702 17.7957L50.0583 31.0077C51.042 31.5796 52.0887 31.9056 53.1983 31.9857C54.3193 32.0543 55.4346 31.8656 56.5441 31.4195C57.6537 30.9733 58.6947 30.2641 59.667 29.2918C61.4972 27.4616 62.5953 25.1738 62.9614 22.4285L67.3882 23.9727ZM47.4159 28.7084L56.8873 19.237C55.9379 18.4706 54.9255 17.9844 53.8503 17.7785C52.7864 17.5612 51.7341 17.6184 50.6931 17.9501C49.6522 18.259 48.7085 18.8366 47.862 19.6831C47.0041 20.541 46.4207 21.4905 46.1118 22.5314C45.803 23.5724 45.7629 24.6305 45.9917 25.7057C46.2091 26.7695 46.6838 27.7704 47.4159 28.7084Z" fill="white"/>
<path d="M24.4099 6.69732C26.0114 7.31205 27.3864 8.1937 28.535 9.34227L32.7087 5.21711C30.8807 3.58323 28.8019 2.3295 26.4724 1.45594C24.1591 0.582375 21.7325 0.145594 19.1927 0.145594C16.5235 0.145594 14.0403 0.622818 11.7432 1.57727C9.46222 2.51554 7.47244 3.84206 5.77384 5.55683C4.09142 7.2716 2.77299 9.28565 1.81854 11.599C0.880269 13.8961 0.411133 16.3874 0.411133 19.0728C0.411133 21.7744 0.880269 24.2737 1.81854 26.5709C2.77299 28.868 4.09951 30.874 5.79811 32.5888C7.51288 34.2874 9.51075 35.6139 11.7917 36.5683C14.0889 37.5228 16.5801 38 19.2655 38C21.8701 38 24.2481 37.547 26.3996 36.6411C28.5512 35.7352 30.4116 34.4491 31.9807 32.7829C33.5499 31.1005 34.7551 29.1188 35.5963 26.8378C36.4537 24.5407 36.8824 22.0089 36.8824 19.2427L36.7125 16.8161H19.5567V21.7663H31.0586C30.8483 23.3678 30.4196 24.8238 29.7726 26.1341C29.1255 27.4444 28.2924 28.5688 27.2732 29.507C26.2702 30.4291 25.1055 31.1409 23.7789 31.6424C22.4524 32.1277 20.9965 32.3704 19.4111 32.3704C17.5831 32.3704 15.9088 32.0468 14.3881 31.3997C12.8675 30.7527 11.5491 29.8306 10.4328 28.6335C9.3328 27.4364 8.47542 26.0209 7.86069 24.387C7.26213 22.7369 6.96286 20.9251 6.96286 18.9515C6.96286 16.994 7.26213 15.2146 7.86069 13.613C8.45924 11.9953 9.30854 10.6041 10.4086 9.43934C11.5086 8.25841 12.8109 7.35249 14.3153 6.72158C15.836 6.09068 17.5103 5.77522 19.3383 5.77522C21.134 5.77522 22.8245 6.08259 24.4099 6.69732Z" fill="white"/>
</svg>
